<svg width="34" height="34" viewBox="0 0 34 34" fill="none" xmlns="http://www.w3.org/2000/svg">
<path d="M16.9835 0.333496C7.7835 0.333496 0.333496 7.80016 0.333496 17.0002C0.333496 26.2002 7.7835 33.6668 16.9835 33.6668C26.2002 33.6668 33.6668 26.2002 33.6668 17.0002C33.6668 7.80016 26.2002 0.333496 16.9835 0.333496ZM17.0002 30.3335C9.6335 30.3335 3.66683 24.3668 3.66683 17.0002C3.66683 9.6335 9.6335 3.66683 17.0002 3.66683C24.3668 3.66683 30.3335 9.6335 30.3335 17.0002C30.3335 24.3668 24.3668 30.3335 17.0002 30.3335ZM17.8335 8.66683H15.3335V18.6668L24.0835 23.9168L25.3335 21.8668L17.8335 17.4168V8.66683Z" fill="#FF7700"/>
</svg>
