<svg width="30" height="30" viewBox="0 0 30 30" fill="none" xmlns="http://www.w3.org/2000/svg">
<path d="M18.75 30H11.25C10.5872 29.9993 9.95166 29.7357 9.48296 29.267C9.01427 28.7983 8.75066 28.1628 8.75 27.5V21.25H2.5C1.83716 21.2493 1.20166 20.9857 0.732964 20.517C0.264267 20.0483 0.000661846 19.4128 0 18.75V11.25C0.000661846 10.5872 0.264267 9.95166 0.732964 9.48296C1.20166 9.01427 1.83716 8.75066 2.5 8.75H8.75V2.5C8.75066 1.83716 9.01427 1.20166 9.48296 0.732964C9.95166 0.264267 10.5872 0.000661846 11.25 0H18.75C19.4128 0.000661846 20.0483 0.264267 20.517 0.732964C20.9857 1.20166 21.2493 1.83716 21.25 2.5V8.75H27.5C28.1628 8.75066 28.7983 9.01427 29.267 9.48296C29.7357 9.95166 29.9993 10.5872 30 11.25V18.75C29.999 19.4127 29.7353 20.048 29.2667 20.5167C28.798 20.9853 28.1627 21.249 27.5 21.25H21.25V27.5C21.249 28.1627 20.9853 28.798 20.5167 29.2667C20.048 29.7353 19.4127 29.999 18.75 30ZM2.5 11.25V18.75H11.25V27.5H18.75V18.75H27.5V11.25H18.75V2.5H11.25V11.25H2.5Z" fill="#FF7700"/>
</svg>
