<svg width="36" height="26" viewBox="0 0 36 26" fill="none" xmlns="http://www.w3.org/2000/svg">
<path d="M33.4282 11.2702C34.2182 12.3035 34.2182 13.6985 33.4282 14.7302C30.9399 17.9785 24.9699 24.6668 17.9999 24.6668C11.0299 24.6668 5.05986 17.9785 2.57152 14.7302C2.18716 14.2354 1.97852 13.6267 1.97852 13.0002C1.97852 12.3736 2.18716 11.7649 2.57152 11.2702C5.05986 8.02183 11.0299 1.3335 17.9999 1.3335C24.9699 1.3335 30.9399 8.02183 33.4282 11.2702V11.2702Z" stroke="#FF7700" stroke-width="2" stroke-linecap="round" stroke-linejoin="round"/>
<path d="M18 18C20.7614 18 23 15.7614 23 13C23 10.2386 20.7614 8 18 8C15.2386 8 13 10.2386 13 13C13 15.7614 15.2386 18 18 18Z" stroke="#FF7700" stroke-width="2" stroke-linecap="round" stroke-linejoin="round"/>
</svg>
