<svg width="40" height="40" viewBox="0 0 40 40" fill="none" xmlns="http://www.w3.org/2000/svg">
<path d="M19.9998 9.16653L24.9998 11.6665M19.9998 9.16653C18.2098 8.18986 15.6948 6.66653 13.3332 6.66653C9.83317 6.66486 6.6665 8.74486 6.6665 14.9999C6.6665 23.1649 8.4265 29.0165 11.1182 32.5615C12.0732 33.8215 14.4015 33.4299 15.3965 32.1682C16.0598 31.3265 16.7615 29.7699 17.4998 27.4999C17.9865 26.2149 18.9865 24.9932 19.9998 24.9999C21.0032 25.0065 22.0165 26.2282 22.4998 27.4999C23.2382 29.7699 23.9398 31.3249 24.6032 32.1665C25.5982 33.4315 27.9265 33.8215 28.8815 32.5615C31.5732 29.0165 33.3332 23.1665 33.3332 14.9999C33.3332 8.76653 30.1532 6.67653 26.6665 6.66653C24.2948 6.65986 21.7998 8.18486 19.9998 9.16653Z" stroke="#FF7700" stroke-width="3" stroke-linecap="round" stroke-linejoin="round"/>
</svg>
