<svg width="1440" height="818" viewBox="0 0 1440 818" fill="none" xmlns="http://www.w3.org/2000/svg">
<path opacity="0.5" d="M1363.54 111.334H1351.34L1366.59 139.527V116.856L1363.54 111.334ZM1344.29 188.366L1366.59 195.226V192.208L1344.33 185.349L1344.29 188.366ZM1243.8 115.792L1283.83 129.512L1256.75 156.675L1230.38 120.423L1227.09 121.108L1254.53 158.836L1248.41 164.941L1161.51 123.543L1160.29 125.979L1246.16 167.137L1236.03 177.425L953.824 90.5489L951.248 99.3977L1085.09 140.829L1077.36 173.585L1034.21 160.894L1028.39 191.247L921.518 157.91L920.444 161.752C920.01 154.83 919.029 147.951 917.51 141.173L1003.13 159.9L1003.55 125.122L999.795 124.435L999.258 155.99L916.723 137.983C914.412 128.307 910.893 118.933 906.241 110.064L896.223 112.602C906.25 132.82 910.532 155.216 908.637 177.528C903.986 229.216 865.705 271.196 793.185 300.178C698.196 338.111 603.566 379.268 535.983 447.487C496.293 487.654 467.175 536.322 451.048 589.446C433.804 644.322 426.004 708.357 428.759 786.557H445.646C442.677 721.87 447.006 666.514 458.454 618.291H499.527L531.332 786.557H537.164L504.965 618.291H598.486L580.419 786.557H586L603.602 618.291H648.109V786.557H659.236L658.556 675.671L781.557 527.882L793.722 556.177C755.154 585.673 730.825 637.566 733.688 699.816L737.552 786.557H756.084L751.397 699.816C750.258 680.479 752.311 661.091 757.479 642.367H830.643L892.502 786.419H898.441L836.153 642.367H921.303L916.867 644.013L976.972 786.557H982.803L921.732 642.505H981.157L1037.61 725.883L1049.96 786.693H1061.08L1050.14 734.218L1238.14 744.061L1251.1 786.557H1269.63L1246.84 713.982L1264.98 716.725L1311.48 753.253L1366.59 757.163V750.784L1311.41 746.873L1274.89 718.303L1366.59 732.228V726.123L1338.75 721.904L1337.64 618.428L1366.59 620.109V614.552L1332.1 612.563L1332.91 721.012L1301.58 716.279L1288.23 633.69L1248.06 575.384L1330.34 559.813L1366.66 568.764V563.722L1341.62 557.583L1366.66 552.85V547.123L1306.37 558.509L1242.97 477.017C1258.5 474.763 1274.15 473.446 1289.84 473.074L1366.66 546.367V540.743L1295.39 472.936C1319.2 472.63 1343.01 473.638 1366.69 475.954V466.523C1361.11 465.973 1355.64 465.459 1350.27 465.047C1341.54 464.396 1333.06 463.882 1324.76 463.573L1323.08 423.204H1366.59V408.251H1306.12L1288.23 341.061L1366.66 374.638V363.8L1336.82 299.252L1366.66 308.65V296.817L1322.07 282.926L1314.53 252.058L1353.31 262.004L1333.96 217.863L1366.66 228.152V217.588L1346.3 211.312L1339.4 148.684L1366.66 158.013V155.132L1244.27 113.22L1243.8 115.792ZM1235.14 219.201L1267.34 229.216L1277.82 269.069L1184.8 240.122L1188.56 225.168L1234.57 237.104L1235.14 219.201ZM1114.07 273.288L1101.22 289.648C1086.59 308.203 1062.48 318.63 1033.57 318.63H994.038L992.786 258.506L1052.82 269.652L1045.66 234.738L1114.07 273.288ZM1044.67 230.518L1039.47 205.755L1141.91 237.927L1116.15 270.647L1044.67 230.518ZM912.573 362.12L995.33 416.104L969.816 463.059H929.818L912.573 362.12ZM925.059 463.059H881.983L875.258 415.35L917.617 417.819L925.059 463.059ZM999.506 418.848L1042.84 447.11L1046.66 463.059H975.791L999.506 418.848ZM1041.37 441.279L1001.41 415.247L1024.7 371.997L1041.37 441.279ZM1018.08 326.656H1035.43C1041.95 326.663 1048.46 326.136 1054.9 325.078L1075.82 353.168L1027.06 363.114L1018.08 326.656ZM1038.58 410.995H1137.97L1153.85 463.059H1051.43L1038.58 410.995ZM1037.51 406.536L1027.99 367.435L1078.69 357.147L1115.53 406.604L1037.51 406.536ZM1058.98 324.221C1074.06 321.355 1088.04 314.609 1099.44 304.705L1144.41 339.002L1080.01 352.139L1058.98 324.221ZM1013.75 326.553L1022.98 364.898L997.189 412.435L911.607 356.769L906.491 326.553H1013.75ZM916.867 413.326L836.797 408.696L827.173 326.656H902.305L916.867 413.326ZM832.254 408.456L747.283 403.552L737.767 368.259L828.64 376.593L832.254 408.456ZM748.499 408.045L832.791 412.915L838.515 463.059H668.895L749.251 410.754L748.499 408.045ZM837.441 413.155L870.821 415.11L877.44 463.127H843.166L837.441 413.155ZM936.222 472.49L1048.14 529.665H906.599L849.355 472.49H936.222ZM945.989 472.49H1153.49L1136.4 529.665H1058.4L945.989 472.49ZM1158.83 472.49H1193.46C1185.56 490.588 1181.62 510.049 1181.9 529.665H1141.94L1158.83 472.49ZM1182.73 546.985C1184.14 562.297 1187.12 577.438 1191.64 592.19L1221.76 691.036L1081.51 546.985H1182.73ZM1197.36 462.921H1158.36L1142.33 410.857H1221.05L1227.88 429.995C1217.25 437.614 1208.22 447.085 1201.26 457.913C1200 459.903 1198.79 461.892 1197.69 463.95L1197.36 462.921ZM1120.58 406.399L1082.98 356.221L1149.17 342.707L1214.6 392.782L1219.5 406.502L1120.58 406.399ZM1153.82 341.61L1193.46 333.515L1212.31 386.266L1153.82 341.61ZM1149.23 338.179L1102.2 302.408C1104.53 300.109 1106.72 297.669 1108.74 295.102L1150.99 240.877L1161.44 244.306L1191.96 329.709L1149.23 338.179ZM1166.02 245.576L1267.09 277.37L1282.15 334.681L1182.84 292.29L1166.02 245.576ZM1205.37 178.078L1232.35 186.445L1231.1 214.775L1204.66 206.544L1205.37 178.078ZM1201.3 176.808L1200.51 205.241L1171.24 196.152L1169.99 167.102L1201.3 176.808ZM1088.95 142.03L1120.26 151.736L1116.22 184.971L1081.33 174.681L1088.95 142.03ZM1080.73 177.7L1120.08 189.224L1124.37 152.937L1166.16 165.867L1167.45 198.107L1231.13 217.966L1230.48 232.714L1185.41 221.019L1180.87 238.853L1130.53 223.144L1131.14 221.67L1076.68 195.57L1080.73 177.7ZM1037.48 164.975L1076.83 176.533L1072.03 196.804L1120.08 219.955L1032.28 192.517L1037.48 164.975ZM1035.36 204.487L1047.88 265.194L946.883 246.502L967.848 183.256L1035.36 204.487ZM920.444 179.14C920.73 175.471 920.802 171.938 920.766 168.474L963.985 182.193L942.518 245.849L899.586 237.893C911.605 220.321 918.747 200.098 920.336 179.14H920.444ZM893.861 245.61C895.113 244.032 896.223 242.454 897.439 240.842L988.778 257.785L989.351 289.305L860.946 277.198C873.306 268.121 884.339 257.497 893.754 245.61H893.861ZM799.231 310.775C819.481 302.859 838.693 292.695 856.475 280.491L989.53 293.078L989.994 318.733H779.554L799.231 310.775ZM760.484 326.69H823.023L828.247 372.375L736.728 364.006L730.11 339.689C740.104 335.231 750.192 330.886 760.377 326.656L760.484 326.69ZM722.346 343.256L738.089 403.071L621.705 396.212C653.823 376.22 687.424 358.509 722.239 343.222L722.346 343.256ZM460.028 612.666C474.125 557 497.917 511.316 531.189 472.662H582.243L550.043 612.666H460.028ZM648.144 612.666H555.124L587.002 472.49H648.252L648.144 612.666ZM539.775 463.093C541.672 461.035 543.604 458.942 545.607 456.919C566.605 435.73 589.951 416.801 615.229 400.465L737.767 407.325L651.4 463.059L539.775 463.093ZM658.556 666.993L657.518 472.49H757.694L779.161 522.428L658.556 666.993ZM762.775 472.49H843.023L900.087 529.665H871.465C844.86 529.635 818.956 537.852 797.621 553.09L762.775 472.49ZM759.196 636.4C766.71 611.982 781.211 590.072 801.056 573.154L828.211 636.4H759.196ZM833.685 636.4L805.063 570.067C824.569 555.107 848.811 546.965 873.791 546.985H916.723L976.972 636.537L833.685 636.4ZM922.197 546.985H1001.34L1034.93 712.644L922.197 546.985ZM1047.42 721.596L1011.03 546.985H1075.43L1142.69 616.267L1047.42 721.596ZM1050.99 727.632L1147.24 620.76L1225.12 700.983L1236.21 737.407L1050.99 727.632ZM1283.3 634.17L1296.1 715.25L1244.87 707.499L1208.49 592.19C1207.55 589.205 1206.7 586.257 1205.91 583.307L1243.37 576.207L1283.3 634.17ZM1204.59 577.579C1200.34 560.749 1198.58 543.431 1199.37 526.133L1265.59 565.952L1204.59 577.579ZM1301.69 559.229L1272.06 565.095L1199.68 521.707C1200.7 508.87 1203.77 496.259 1208.8 484.323C1218.6 481.576 1228.54 479.388 1238.61 477.773H1238.4L1301.69 559.229ZM1308.84 423.067H1318.25L1319.79 463.264C1279.75 461.995 1244.65 464.773 1215.25 471.633C1233.39 441.347 1266.19 423.204 1308.73 423.204L1308.84 423.067ZM1301.69 408.148C1276.91 407.722 1252.56 414.45 1231.82 427.458L1184.48 296.645L1283.33 338.968L1301.69 408.148ZM1332.1 297.571L1365.33 369.974L1287.27 336.636L1271.88 278.673L1332.1 297.571ZM1317.79 281.383L1282.61 270.408L1271.06 226.952L1235.57 215.942L1236.75 187.577L1299.79 207.093L1317.79 281.383ZM1347.3 256.928L1313.92 248.388L1304.11 208.43L1329.62 216.32L1347.3 256.928ZM1341.89 209.872L1240.76 178.763L1268.55 150.742L1337.43 167.891L1341.89 209.872ZM1335.17 147.141L1337.1 164.975L1270.88 148.409L1288.23 131.02L1335.17 147.141ZM739.269 238.442H739.805V238.064C752.289 229.645 763.655 219.798 773.65 208.739C790.04 190.895 800.896 169.012 804.991 145.563C808.809 123.342 806.005 100.541 796.906 79.7793L791.897 80.9797L786.924 82.1801C795.1 101.761 797.453 123.131 793.722 143.916C792.674 149.844 791.13 155.683 789.106 161.374H759.805L773.043 121.28L769.464 120.32L755.906 161.477H732.757L729.18 124.881H725.602L728.93 161.409H654.978C655.582 158.761 655.881 156.058 655.872 153.349V120.868H648.502V153.349C648.502 174.511 627.465 192.242 601.671 192.242H583.424L595.66 111.54L592.082 111.265L585.249 155.612H510.761L514.875 115.792H502.639L498.167 155.509H451.263L462.319 120.971L458.741 120.56L447.471 155.543H406.935C406.935 155.167 406.935 154.823 407.186 154.48L414.986 111.334H407.83L399.816 154.48C399.816 154.823 399.601 155.167 399.53 155.543H328.548L338.065 115.792H334.487L324.112 158.665H398.528C392.553 177.666 370.765 192.791 346.866 193.374L318.495 194.094L271.126 154.309L287.906 94.9732H275.741L258.067 155.612L209.053 148.478L225.796 114.729L222.219 114.317L205.403 147.964L148.661 139.801L161.04 121.314L157.748 120.629L127.374 165.73L78.6094 164.049V167.479L117.356 168.68L78.6094 186.96V190.39L123.616 168.851H125.226L89.7003 221.807L78.6094 220.504V224.173L87.2674 225.202L78.6094 238.099V244.272L127.159 171.733L167.695 223.728L151.702 255.728H78.6094V259.364H109.055L78.6094 295.925V301.378L112.741 260.221L110.701 259.364H177.282L78.6094 386.745V392.953L181.683 259.467H227.943L197.533 363.8C192.13 382.355 171.737 397.789 152.238 397.789H78.6094V412.538H130.88L93.278 527.985H78.6094V533.163H189.876C182.935 559.367 175.565 587.045 168.41 614.106H78.6094V619.765H166.8C162.078 637.566 157.462 654.99 153.062 671.52H78.6094V683.662H91.4175L78.6094 726.706V744.953L96.8557 683.662H149.806C135.209 738.298 123.831 780.485 121.828 786.557C122.114 785.973 122.549 785.469 123.093 785.09C123.638 784.712 124.274 784.473 124.941 784.395L124.368 786.557H127.266C128.124 783.949 129.449 779.079 132.096 769.407C134.35 761.141 137.319 750.028 140.969 736.446H237.388C234.025 752.75 231.175 769.464 228.837 786.59H246.046C291.053 456.027 538.309 322.883 676.158 270.544C698.464 262.312 719.653 251.534 739.269 238.442ZM787.818 164.529C779.017 187.166 762.775 207.539 738.589 225.168L732.865 164.529H787.818ZM729.073 164.529L734.833 227.809C728.348 232.323 721.625 236.513 714.69 240.362L642.313 218.686L691.865 164.666L729.073 164.529ZM584.783 158.699L579.596 192.173H549.221L558.201 158.699H584.783ZM508.685 175.573L510.438 158.699H554.373L545.286 192.173H505.323C506.979 186.752 508.104 181.195 508.685 175.573ZM502.997 198.862H601.313C626.822 198.862 648.216 184.011 654.227 164.563H687.178L617.376 240.362L486.754 227.329C493.588 218.65 499.06 209.06 502.997 198.862ZM293.093 342.913L301.393 307.346L391.158 322.231L365.506 342.81L293.093 342.913ZM360.426 346.995L355.309 351.11L349.334 382.321H283.934L292.163 346.995H360.426ZM302.324 303.436L307.654 280.423H373.52C382.54 280.393 391.536 279.543 400.389 277.884H446.04L395.415 318.836L302.324 303.436ZM443.178 249.554C426.899 259.27 408.566 265.386 389.512 267.458L398.17 218.686L410.478 215.256L409.977 215.634L443.178 249.554ZM414.198 214.296L434.234 208.877L436.809 200.886H488.722C479.563 219.857 465.004 235.967 446.719 247.359L414.198 214.296ZM385.326 267.561H388.689C384.423 267.986 380.135 268.203 375.845 268.212H301.25L305.544 243.586L393.984 219.577L385.326 267.561ZM415.772 274.42C442.36 266.459 465.971 251.282 483.749 230.724L614.049 243.758L585.821 274.42H415.772ZM450.262 158.836H497.81L495.913 175.71C495.023 183.205 493.099 190.552 490.189 197.558H437.883L450.262 158.836ZM345.65 200.097C360.375 199.613 374.558 194.653 386.149 185.931C395.665 179.115 402.68 169.58 406.185 158.699H446.433L431.085 206.202L352.769 227.261L338.458 200.268L345.65 200.097ZM333.772 200.371L348.619 228.393L302.109 240.945L300.356 250.789H278.21L290.946 201.537L333.772 200.371ZM299.569 254.39L297.135 268.109H239.07L242.934 254.39H299.569ZM269.981 158.356L312.52 194.197L259.499 195.535L269.981 158.356ZM287.011 201.537L274.167 250.754H243.935L257.602 202.257L287.011 201.537ZM207.765 151.565L257.387 158.836L254.275 169.503L199.679 167.822L207.765 151.565ZM146.944 142.647L204.187 151.05L195.851 167.685L131.452 165.695L146.944 142.647ZM130.594 168.92L194.42 170.875L170.163 219.406L130.594 168.92ZM184.473 255.728L186.37 253.258L183.042 251.921L180.109 255.728H155.817L197.926 171.011L253.202 172.727L229.016 255.728H184.473ZM235.564 280.423H303.54L288.836 342.81H217.961L235.564 280.423ZM212.094 363.561L216.817 346.892H287.834L279.497 382.218H202.899C207.029 376.585 210.138 370.323 212.094 363.697V363.561ZM98.2152 527.985L135.352 412.435H147.587C166.871 412.435 186.656 401.906 199.536 386.677H348.512L338.78 437.643H214.92L214.312 439.942C208.05 463.641 200.001 494.475 191.057 527.985H98.2152ZM177.998 596.579C197.211 523.354 214.92 455.341 218.497 442.239H266.475L214.061 614.106H173.383L177.998 596.579ZM238.819 730.033H142.794L144.546 723.174C147.695 711.375 151.201 698.136 155.065 683.559H250.447C246.082 698.673 242.194 714.153 238.784 729.998L238.819 730.033ZM254.275 671.418H158.249C162.471 655.538 167.014 638.218 171.88 619.662H272.629C265.807 636.445 259.689 653.697 254.275 671.418ZM275.204 614.003H219.142L271.09 442.239H337.886L322.251 524.794C303.898 553.229 288.099 583.107 275.025 614.106L275.204 614.003ZM328.87 514.539L342.466 442.239H386.65C365.414 464.827 346.092 489.004 328.87 514.539ZM391.122 437.643H343.36L352.948 386.745H446.648C427.074 402.61 408.53 419.608 391.122 437.643ZM451.943 382.355H353.771L359.316 352.859L366.471 347.029H500.421C484.178 357.867 467.936 369.597 451.943 382.355ZM506.646 342.947H371.588L451.048 278.81L450.298 278.021H500.779L516.449 336.636C513.157 338.729 509.902 340.82 506.646 342.947ZM520.314 334.236L505.144 278.021H627.752C590.546 294.203 554.637 312.992 520.314 334.236ZM636.41 274.282H591.188L639.665 221.395L710.361 242.695C697.752 249.383 684.688 255.249 671.257 260.255C660.345 264.439 648.646 269.069 636.41 274.282Z" fill="url(#paint0_linear_712_810)" fill-opacity="0.4"/>
<path d="M1439.05 -0.000732422H7.00781V159.448H1439.05V-0.000732422Z" fill="url(#paint1_linear_712_810)"/>
<path d="M7.00977 817.999H1439.05V658.551H7.00977V817.999Z" fill="url(#paint2_linear_712_810)"/>
<path d="M1439.02 817.999V-0.000732422H1281.89V817.999H1439.02Z" fill="url(#paint3_linear_712_810)"/>
<path d="M0 0V818H157.127V0H0Z" fill="url(#paint4_linear_712_810)"/>
<defs>
<linearGradient id="paint0_linear_712_810" x1="968.314" y1="191.797" x2="455.366" y2="802.443" gradientUnits="userSpaceOnUse">
<stop offset="0.61" stop-color="#010910" stop-opacity="0.88"/>
<stop offset="0.9999" stop-color="#041423"/>
<stop offset="1" stop-color="#041423"/>
</linearGradient>
<linearGradient id="paint1_linear_712_810" x1="723.03" y1="49.5321" x2="723.03" y2="159.448" gradientUnits="userSpaceOnUse">
<stop stop-color="#041423"/>
<stop offset="1" stop-color="#041423" stop-opacity="0.17"/>
</linearGradient>
<linearGradient id="paint2_linear_712_810" x1="723.032" y1="768.467" x2="723.032" y2="658.551" gradientUnits="userSpaceOnUse">
<stop stop-color="#041423"/>
<stop offset="1" stop-color="#041423" stop-opacity="0.17"/>
</linearGradient>
<linearGradient id="paint3_linear_712_810" x1="1390.2" y1="408.999" x2="1281.89" y2="408.999" gradientUnits="userSpaceOnUse">
<stop stop-color="#041423"/>
<stop offset="1" stop-color="#041423" stop-opacity="0.17"/>
</linearGradient>
<linearGradient id="paint4_linear_712_810" x1="48.8118" y1="409" x2="157.127" y2="409" gradientUnits="userSpaceOnUse">
<stop stop-color="#041423"/>
<stop offset="1" stop-color="#041423" stop-opacity="0.17"/>
</linearGradient>
</defs>
</svg>
