<svg width="101" height="40" viewBox="0 0 101 40" fill="none" xmlns="http://www.w3.org/2000/svg">
<g clip-path="url(#clip0_1148_881)">
<path d="M22.6431 0.0470307C21.2282 0.163729 19.5197 0.585636 18.0604 1.17361C14.4254 2.65029 10.6435 5.68892 8.00071 9.26616C5.04198 13.2743 3.24894 18.5526 3.507 22.48C3.64047 24.4997 4.17438 26.2143 5.11761 27.6461C5.4869 28.2071 6.3723 29.1003 6.91065 29.4594C7.93842 30.1416 9.2109 30.5635 10.6302 30.6937C10.9683 30.7251 14.6389 30.7431 21.5753 30.7431H32.0087L35.3056 21.6855L38.6069 12.6325L29.6818 12.619C24.7743 12.6145 20.7522 12.619 20.7433 12.628C20.7344 12.6369 20.3117 13.7815 19.8045 15.1729L18.8791 17.7043L24.098 17.7178C27.4883 17.7223 29.3169 17.7447 29.3169 17.7716C29.2886 17.8822 29.2514 17.9903 29.2057 18.0948C29.1479 18.2519 28.525 19.9485 27.8264 21.8695C27.1279 23.7906 26.5362 25.4064 26.5095 25.4513C26.465 25.541 26.3849 25.541 20.9835 25.5231C15.6222 25.5096 15.4932 25.5096 15.1017 25.4154C13.7224 25.0967 12.8237 24.3337 12.2898 23.0231C11.747 21.7035 11.6713 19.76 12.0806 17.8031C12.4499 16.0257 13.2463 13.952 14.1495 12.4035C14.8881 11.1333 15.6534 10.1414 16.7434 9.03726C17.9492 7.82091 18.8524 7.13867 20.0359 6.55069C21.0503 6.05248 21.8956 5.80113 22.9545 5.69341C23.3372 5.65751 26.2203 5.64853 34.3312 5.67546L45.1962 5.70688L45.3564 5.45553C45.6367 5.01118 48.671 0.0335656 48.671 0.015612C48.671 -0.020295 23.088 0.0111237 22.6431 0.0470307Z" fill="white"/>
<path d="M81.1481 0.0292035C77.8467 0.249134 74.6136 1.556 71.4487 3.9498C67.9962 6.56653 65.3088 9.86998 63.6404 13.5549C62.6526 15.7273 61.9986 17.9491 61.7405 19.9958C61.6204 20.9383 61.6338 22.6484 61.7672 23.5102C62.0075 25.0901 62.5058 26.4635 63.2444 27.5856C63.6315 28.1691 64.5124 29.0802 65.0107 29.4169C66.1364 30.1664 67.4133 30.5794 68.9794 30.7006C69.4333 30.7365 72.6678 30.7454 79.8978 30.7365L90.1711 30.723L93.4368 21.7687C95.2343 16.8449 96.7114 12.7695 96.7248 12.7111L96.7515 12.6124H78.9101L78.8389 12.8009C78.7989 12.9086 78.3806 14.0531 77.9046 15.3503L77.0459 17.7067L82.2693 17.7202C85.139 17.7246 87.4882 17.7426 87.4882 17.7516C87.4882 17.7606 87.4215 17.9625 87.3369 18.1914C87.2524 18.4203 86.6384 20.099 85.9755 21.9258C85.3125 23.7525 84.7386 25.3145 84.7074 25.3908L84.6451 25.5389H79.3817C73.9581 25.5389 73.6734 25.5299 72.9837 25.3549C71.1551 24.8836 70.0873 23.2094 69.9716 20.6241C69.8515 17.8458 71.1373 13.9409 73.0861 11.1761C75.106 8.30353 77.7755 6.31069 80.2582 5.81697C81.0546 5.65988 81.3127 5.65539 90.1622 5.65539C97.1564 5.65539 98.9627 5.64192 98.9805 5.59704C98.9894 5.57011 99.4477 4.32234 99.9905 2.82771C100.533 1.33308 100.992 0.0853083 101 0.0538896C101.018 0.0134942 99.0428 2.9052e-05 91.1988 0.00900581C85.793 0.01125 81.2726 0.0202268 81.1481 0.0292035Z" fill="white"/>
<path d="M47.7111 2.76693C46.8124 4.27054 46.0471 5.54075 46.0115 5.59461L45.9492 5.69784H47.0735L48.2036 5.69335L49.8721 2.91056C50.7886 1.37553 51.5495 0.105318 51.5539 0.0828759C51.5584 0.060434 51.109 0.0424805 50.4594 0.0424805H49.3471L47.7111 2.76693Z" fill="white"/>
<path d="M52.021 1.5999C51.5049 2.46167 50.744 3.73188 50.3258 4.43207L49.5605 5.69779L50.5705 5.68882L51.5805 5.67535L53.1733 3.02721C54.0454 1.56848 54.8017 0.30276 54.8551 0.208504L54.9472 0.0446777H52.954L52.021 1.5999Z" fill="white"/>
<path d="M56.2656 0.590063C56.0787 0.895273 55.3179 2.161 54.5704 3.40877L53.209 5.6754L53.9965 5.68886C54.5882 5.69784 54.7974 5.68437 54.833 5.64398C54.8685 5.60358 58.0764 0.271388 58.1788 0.0738991C58.1877 0.0559456 57.8362 0.0424805 57.3957 0.0424805H56.5948L56.2656 0.590063Z" fill="white"/>
<path d="M60.3142 0.0738607C60.3008 0.0963026 59.5489 1.35305 58.6368 2.87012C57.7247 4.38719 56.9728 5.64394 56.9594 5.66189C56.9461 5.67985 57.2264 5.6978 57.5779 5.6978H58.2141L59.8826 2.91052C60.7991 1.37998 61.5599 0.109768 61.5644 0.0828375C61.5822 0.0334653 60.3409 0.0244886 60.3142 0.0738607Z" fill="white"/>
<path d="M63.8703 0.208551C63.6924 0.491319 60.5957 5.66193 60.5957 5.67989C60.5957 5.68886 60.7915 5.69784 61.0317 5.69784L61.4633 5.69335L63.1318 2.91056C64.0483 1.37553 64.8091 0.105318 64.8136 0.0828759C64.818 0.060434 64.64 0.0424805 64.4042 0.0424805H63.9771L63.8703 0.208551Z" fill="white"/>
<path d="M65.9259 2.84318C65.0005 4.37821 64.2441 5.65291 64.2441 5.67086C64.2441 5.68882 64.3687 5.69779 64.52 5.68882L64.7958 5.67535L66.3887 3.02721C67.2607 1.56848 68.0171 0.30276 68.0705 0.208504L68.1626 0.0446777H67.602L65.9259 2.84318Z" fill="white"/>
<path d="M69.85 2.31375C69.1026 3.56152 68.453 4.64322 68.404 4.71952C68.3507 4.80929 68.582 4.63873 69.0403 4.24824C71.4562 2.21052 73.6185 0.899911 75.7453 0.195236L76.1902 0.0471191H71.2071L69.85 2.31375Z" fill="white"/>
<path d="M41.823 7.74915C41.8008 7.79404 40.6796 10.6083 39.3314 14.0015C37.8143 17.8345 36.8221 20.3839 36.7242 20.734C36.3683 21.9908 36.2303 23.0321 36.2704 24.1677C36.3371 25.9944 36.8354 27.2601 37.8988 28.3194C39.2425 29.6659 41.1334 30.3257 44.5771 30.6578C44.9819 30.6982 47.6693 30.7162 54.3654 30.7297L63.5975 30.7476L63.2282 30.3526C62.1248 29.1857 61.3907 28.1444 60.7011 26.7844C60.4919 26.3625 60.265 25.9675 60.1983 25.9136L60.0826 25.8104L55.1217 25.8059C52.3944 25.8059 49.8005 25.7835 49.36 25.761C46.7527 25.6129 45.7161 25.1147 45.0175 23.6605C44.4658 22.5249 44.4169 21.3759 44.8485 19.9486C44.9241 19.7017 46.0364 16.8606 47.3178 13.6334C48.5992 10.4063 49.6492 7.74467 49.6492 7.71774C49.6492 7.69081 48.4434 7.67285 45.7561 7.67285C42.1002 7.6751 41.8644 7.67734 41.823 7.74915Z" fill="white"/>
<path d="M2.81321 33.7898C2.03905 33.92 1.39836 34.4362 1.02463 35.2396C0.95344 35.3877 0.699835 36.1373 0.464026 36.9048C0.0769437 38.1481 0.0280023 38.3411 0.0102054 38.7226C-0.00759149 39.1041 -0.00314227 39.1804 0.0902914 39.3913C0.263811 39.8043 0.624198 39.9928 1.22039 39.9883C1.68311 39.9883 1.94117 39.8806 2.44838 39.4901L2.55961 39.4003L2.54181 39.6696L2.52402 39.9344H2.9022C3.22699 39.9344 3.28483 39.921 3.30708 39.8536C3.32043 39.8132 3.52954 39.1265 3.77425 38.3321C4.01895 37.5376 4.22362 36.8778 4.22362 36.8599C4.22362 36.8419 3.84099 36.8419 3.36937 36.8464L2.51512 36.8599L2.43503 37.1292C2.40321 37.228 2.37647 37.3283 2.35495 37.4299C2.35495 37.4479 2.48397 37.4658 2.6397 37.4748L2.92445 37.4883L2.73758 38.0493C2.51067 38.745 2.33715 39.0098 1.99901 39.1804C1.74095 39.315 1.61637 39.3285 1.37612 39.2477C1.1759 39.1804 1.10916 38.9919 1.1581 38.6597C1.2115 38.3455 2.15918 35.3024 2.28821 35.0421C2.40389 34.8087 2.65749 34.5618 2.81321 34.5304C2.86661 34.517 2.96449 34.499 3.02678 34.4855C3.12076 34.4739 3.21609 34.4816 3.30708 34.508C3.44056 34.5439 3.4895 34.5888 3.54289 34.7189C3.60963 34.8715 3.60963 34.9164 3.54289 35.2216C3.50284 35.4057 3.45835 35.6031 3.44056 35.657C3.41386 35.7602 3.41386 35.7602 3.87658 35.7602H4.34375L4.51282 35.3877C4.81092 34.7324 4.77087 34.2297 4.40604 33.9873C4.07679 33.7674 3.42276 33.6866 2.81321 33.7898Z" fill="white"/>
<path d="M11.5345 33.8077C10.7604 33.9783 10.1953 34.463 9.83494 35.2754C9.68367 35.6121 8.9273 38.0403 8.85167 38.4442C8.73154 39.0412 8.87836 39.5259 9.2432 39.7593C9.52795 39.9434 9.69257 39.9793 10.222 39.9793C10.7515 39.9793 11.1875 39.8581 11.579 39.6022C11.9973 39.3285 12.3888 38.8302 12.589 38.3141C12.7447 37.9236 13.47 35.5537 13.5278 35.2665C13.6346 34.7009 13.4833 34.1758 13.1541 33.9693C12.8026 33.7525 12.1085 33.6821 11.5345 33.8077ZM12.2642 34.5708C12.3932 34.656 12.4288 34.8535 12.3666 35.1632C12.2553 35.6974 11.3121 38.6328 11.1831 38.8437C10.965 39.1938 10.6492 39.3509 10.2932 39.2881C10.0263 39.2342 9.95062 39.1175 9.97287 38.7943C9.99512 38.4712 10.925 35.4325 11.1252 35.0376C11.2631 34.7593 11.4634 34.5618 11.6458 34.5214C11.7014 34.5111 11.7563 34.4976 11.8104 34.481C11.886 34.4496 12.1619 34.5079 12.2642 34.5708Z" fill="white"/>
<path d="M35.5467 33.7898C35.2174 33.8482 34.728 34.0906 34.4655 34.3239C34.2208 34.5439 33.9405 34.9433 33.7892 35.289C33.7314 35.4191 33.4911 36.1507 33.2553 36.9093C32.8771 38.1256 32.8193 38.35 32.8015 38.7091C32.7703 39.2253 32.846 39.4587 33.1129 39.6876C33.3888 39.9254 33.6735 39.9928 34.2964 39.9703C34.688 39.9524 34.8748 39.921 35.0706 39.8447C35.6668 39.6157 36.1473 39.1534 36.4543 38.5251C36.6545 38.1121 37.4465 35.5627 37.4999 35.1543C37.6245 34.2297 37.2285 33.7943 36.2407 33.7584C35.9916 33.7526 35.6801 33.7629 35.5467 33.7898ZM36.0895 34.5035C36.481 34.6157 36.4499 34.867 35.8181 36.9048C35.5422 37.7935 35.253 38.6373 35.1774 38.7854C34.9861 39.149 34.7769 39.2836 34.4077 39.2836C34.0295 39.2836 33.9227 39.1849 33.9271 38.8482C33.9316 38.5834 34.8882 35.4191 35.0795 35.0421C35.2041 34.7997 35.4488 34.5618 35.6267 34.5214C35.6823 34.5111 35.7373 34.4977 35.7914 34.481C35.8715 34.4541 35.9204 34.4586 36.0895 34.5035Z" fill="white"/>
<path d="M40.6763 33.7899C39.9333 33.9156 39.3282 34.3779 38.9367 35.1229C38.8166 35.3518 38.1803 37.2953 37.9534 38.1391C37.7977 38.7047 37.8333 39.2792 38.0468 39.5844C38.4339 40.1454 39.5818 40.1275 40.2136 39.553C40.2718 39.494 40.3359 39.4414 40.4049 39.3959C40.4138 39.3959 40.4094 39.5171 40.396 39.6652L40.3693 39.9345H41.139L41.5929 38.4623C41.842 37.6544 42.0556 36.9587 42.0689 36.9138C42.0912 36.842 42.0378 36.8375 41.2369 36.8465L40.3827 36.8599L40.3293 37.017C40.2981 37.1068 40.2581 37.2414 40.2403 37.3222L40.2092 37.4659H40.7876L40.6407 37.9282C40.3916 38.7226 40.2047 39.0144 39.8354 39.1984C39.6397 39.2971 39.5596 39.3106 39.395 39.2881C39.2883 39.2718 39.1865 39.232 39.0969 39.1714C38.9055 39.0188 38.9589 38.7361 39.5062 36.9721C39.7776 36.0969 40.049 35.2666 40.1113 35.1319C40.3115 34.6876 40.5695 34.4946 40.9611 34.4856C41.1613 34.4856 41.2147 34.5035 41.317 34.6068C41.4193 34.71 41.4371 34.7639 41.4327 34.9613C41.4267 35.1239 41.4014 35.2852 41.3571 35.4416C41.3272 35.5342 41.3035 35.6287 41.2859 35.7244C41.2859 35.7423 41.495 35.7603 41.7486 35.7603H42.2069L42.3448 35.4551C42.4159 35.2991 42.4768 35.1387 42.5272 34.9748C42.6429 34.5439 42.5361 34.149 42.2514 33.9694C41.9221 33.763 41.2681 33.6911 40.6763 33.7899Z" fill="white"/>
<path d="M48.4049 33.7674C47.6219 33.911 47.0346 34.3149 46.7454 34.9029C46.6208 35.1632 46.603 35.2395 46.603 35.5807C46.603 36.0789 46.6742 36.2405 47.2971 37.0888C47.8977 37.9146 47.9823 38.0807 47.9778 38.4083C47.9689 38.9873 47.5418 39.3644 46.9945 39.2881C46.563 39.2297 46.474 39.0188 46.6163 38.4173C46.6697 38.2019 46.7142 38.0089 46.7142 37.9909C46.7142 37.973 46.5185 37.964 46.2827 37.9685L45.8466 37.9819L45.6776 38.3186C45.3661 38.947 45.3706 39.3644 45.6909 39.6696C45.9312 39.8985 46.2604 39.9927 46.8433 39.9927C48.0801 39.9883 48.9566 39.3778 49.1657 38.3724C49.2681 37.8697 49.1124 37.5017 48.3426 36.411C48.0312 35.9712 47.7687 35.5672 47.7553 35.5044C47.6619 35.1363 47.8621 34.6965 48.178 34.5618C48.4183 34.4586 48.7787 34.4631 48.9255 34.5753C49.1391 34.7369 49.1479 34.9882 48.9566 35.657C48.9299 35.7602 48.9344 35.7602 49.3793 35.7602H49.8318L50.0053 35.3877C50.2411 34.8939 50.2812 34.5618 50.1299 34.279C50.0409 34.1175 49.9653 34.0501 49.7295 33.9245C49.467 33.7898 49.4002 33.7763 48.9775 33.7629C48.7253 33.7525 48.4672 33.7525 48.4049 33.7674Z" fill="white"/>
<path d="M60.1498 33.7853C59.8749 33.8393 59.6105 33.9378 59.3667 34.077C59.0687 34.2566 58.6638 34.7278 58.4636 35.1408C58.2455 35.5806 57.4625 38.0807 57.3913 38.5519C57.3023 39.1758 57.458 39.5843 57.8852 39.8221C58.121 39.9523 58.1388 39.9568 58.7483 39.9568C59.2956 39.9568 59.4023 39.9433 59.6248 39.8536C60.2343 39.6067 60.5725 39.2162 60.8127 38.4936C60.8678 38.3363 60.9138 38.1759 60.9507 38.0133C60.9507 37.9729 60.8172 37.9595 60.439 37.9595H59.9305L59.8103 38.341C59.6546 38.8527 59.4989 39.086 59.2408 39.2117C59.0006 39.3329 58.7292 39.3105 58.5823 39.1624C58.4355 39.0142 58.4978 38.709 59.0362 36.9855C59.6012 35.1677 59.6324 35.0734 59.8192 34.8086C60.0461 34.481 60.4599 34.3553 60.6868 34.5438C60.7803 34.6201 60.7936 34.6695 60.7892 34.8939C60.7785 35.0841 60.7457 35.2725 60.6913 35.4549L60.6023 35.7602H61.065C61.6078 35.7602 61.59 35.7736 61.7991 35.1677C61.9994 34.5797 61.9549 34.2296 61.6523 33.9962C61.3689 33.7763 60.7193 33.6865 60.1498 33.7853Z" fill="white"/>
<path d="M64.4699 33.8077C63.7892 33.9648 63.2419 34.3643 62.9883 34.9029C62.8638 35.1632 62.846 35.244 62.8415 35.5806C62.8415 36.0743 62.9216 36.2494 63.5356 37.0842C64.2297 38.0358 64.3009 38.2018 64.1985 38.6372C64.0917 39.0816 63.6869 39.3509 63.2197 39.288C62.9216 39.2476 62.797 39.0995 62.8059 38.8033C62.8119 38.6407 62.8373 38.4795 62.8816 38.323C62.9928 37.937 63.0106 37.955 62.5212 37.9684L62.0851 37.9819L61.9116 38.332C61.7648 38.6238 61.7337 38.736 61.7159 39.0277C61.7025 39.3374 61.7114 39.3913 61.8048 39.5304C62.0407 39.8805 62.708 40.0645 63.4288 39.9792C63.8826 39.9254 64.0695 39.867 64.4299 39.6785C64.8045 39.4811 65.1034 39.1638 65.2797 38.7764C65.3998 38.5205 65.4221 38.4218 65.4221 38.139C65.4221 37.6857 65.2797 37.3894 64.599 36.4289C64.3053 36.0115 64.0428 35.621 64.0206 35.5582C63.9138 35.2709 64.0295 34.8356 64.2608 34.647C64.4254 34.5169 64.7858 34.4451 64.9949 34.5034C65.382 34.6066 65.431 34.9029 65.1952 35.6794C65.1729 35.7512 65.213 35.7602 65.6223 35.7602H66.0716L66.2496 35.3876C66.6234 34.5977 66.4899 34.086 65.8403 33.8481C65.5658 33.7494 64.8259 33.7269 64.4699 33.8077Z" fill="white"/>
<path d="M70.9755 33.7898C70.2013 33.92 69.5606 34.4362 69.1869 35.2396C69.1157 35.3877 68.8621 36.1373 68.6263 36.9048C68.2259 38.184 68.1903 38.3321 68.1725 38.745C68.1502 39.1714 68.1547 39.2028 68.2792 39.4407C68.4394 39.7459 68.6886 39.912 69.0846 39.9748C69.5651 40.0511 70.1479 39.894 70.4727 39.6023C70.7263 39.3734 70.7263 39.3734 70.7041 39.6651L70.6863 39.9344H71.4426L71.4916 39.7863C71.7986 38.7989 72.3859 36.8868 72.3859 36.8644C72.3859 36.8509 72.0032 36.8419 71.5361 36.8464L70.6863 36.8599L70.6017 37.1292C70.5572 37.2773 70.5172 37.412 70.5172 37.4299C70.5172 37.4479 70.6418 37.4658 70.7975 37.4748L71.0823 37.4883L70.9132 38.0269C70.6952 38.7226 70.5083 39.0098 70.1524 39.1894C69.9344 39.2971 69.8632 39.3105 69.6896 39.2836C69.1646 39.2073 69.178 38.9919 69.8498 36.8419C70.1212 35.9667 70.3926 35.1588 70.4505 35.0421C70.5662 34.8087 70.8198 34.5618 70.9755 34.5304C71.0289 34.517 71.1268 34.499 71.189 34.4855C71.283 34.4739 71.3783 34.4816 71.4693 34.508C71.6028 34.5439 71.6518 34.5888 71.7051 34.7189C71.7719 34.8715 71.7719 34.9164 71.7051 35.2216C71.6651 35.4057 71.6206 35.6031 71.6028 35.657C71.5761 35.7602 71.5761 35.7602 72.0388 35.7602H72.506L72.6751 35.3877C72.9732 34.7324 72.9331 34.2297 72.5683 33.9873C72.2391 33.7674 71.585 33.6866 70.9755 33.7898Z" fill="white"/>
<path d="M80.8846 33.7773C80.1282 33.9389 79.4964 34.5134 79.1672 35.3168C78.9669 35.8195 78.2551 38.1714 78.2061 38.4991C78.1127 39.1409 78.2862 39.5718 78.7356 39.7962C78.958 39.9039 79.0559 39.9219 79.4608 39.9398C80.3017 39.9668 80.7911 39.7783 81.3295 39.2307C81.7922 38.7594 81.939 38.4317 82.464 36.7351C82.8244 35.5682 82.9 35.2809 82.9178 34.9577C82.9401 34.6076 82.9312 34.5448 82.8289 34.3204C82.6954 34.0241 82.4774 33.8581 82.0992 33.7683C81.7744 33.692 81.2583 33.692 80.8846 33.7773ZM81.681 34.5942C81.7744 34.6974 81.7833 34.7378 81.761 34.9622C81.7299 35.2405 80.8134 38.2432 80.6354 38.6472C80.4085 39.1499 80.0436 39.3519 79.5898 39.2262C79.3852 39.1678 79.3051 38.9973 79.3407 38.6966C79.3763 38.3958 80.324 35.3572 80.4886 35.0206C80.5687 34.8545 80.6888 34.6884 80.7778 34.6166C81.0625 34.3967 81.4941 34.3877 81.681 34.5942V34.5942Z" fill="white"/>
<path d="M6.5196 34.1534C6.45731 34.3599 6.03018 35.7423 5.56747 37.228L4.72656 39.9345H7.45838L7.53847 39.6517C7.57851 39.4991 7.62745 39.3375 7.63635 39.2971C7.6586 39.2253 7.59631 39.2163 6.88443 39.2074L6.10582 39.1939L6.94672 36.5009C7.40499 35.0197 7.78318 33.8034 7.78318 33.7944C7.78318 33.7854 7.52512 33.7854 7.20923 33.7854H6.62949L6.5196 34.1534Z" fill="white"/>
<path d="M15.48 33.7974C15.48 33.8109 15.0618 35.1798 14.5457 36.8361C14.0296 38.4923 13.6113 39.8657 13.6113 39.8926C13.6113 39.9779 15.747 39.9151 16.1029 39.8208C17.0194 39.574 17.491 39.1162 17.7758 38.1826C18.0161 37.4061 17.8514 36.9393 17.2819 36.7642C17.1351 36.7194 17.1173 36.7059 17.193 36.679C17.6557 36.5219 18.0472 36.2526 18.2563 35.9429C18.3604 35.7696 18.4469 35.5861 18.5144 35.3953C18.7368 34.749 18.6567 34.3091 18.2697 34.0802C17.9315 33.8782 17.5889 33.8243 16.4944 33.7974C15.9338 33.7853 15.48 33.7853 15.48 33.7974ZM17.1485 34.5649C17.4599 34.6996 17.5088 34.9509 17.3264 35.5254C17.2107 35.8935 17.0328 36.1404 16.7792 36.2705C16.6146 36.3558 16.1607 36.4411 15.965 36.4231L15.8048 36.4097L16.1073 35.4447C16.272 34.915 16.4099 34.4707 16.4099 34.4617C16.4175 34.4258 17.0105 34.5124 17.1485 34.5663V34.5649ZM16.4321 37.1682C16.7614 37.3073 16.8014 37.5632 16.5879 38.2499C16.4633 38.6538 16.4277 38.7212 16.223 38.9232C15.9561 39.1835 15.7603 39.2598 15.2486 39.2957L14.9061 39.3181L15.0084 38.986C15.0618 38.802 15.2175 38.3038 15.3465 37.8774L15.5868 37.1054H15.9338C16.134 37.1067 16.3476 37.1336 16.4321 37.1695V37.1682Z" fill="white"/>
<path d="M19.8171 36.6669C18.9629 38.2558 18.2199 39.6382 18.162 39.7415L18.0508 39.9345H19.2165L19.4834 39.3959L19.7504 38.8573H20.44C21.2409 38.8573 21.1652 38.781 21.0674 39.4946L21.014 39.9345H22.1797L22.4155 37.0485C22.5445 35.4641 22.6602 34.0816 22.6735 33.9739L22.6958 33.7854H21.3655L19.8171 36.6669ZM21.4544 36.5098C21.3477 37.2953 21.2542 37.982 21.2409 38.0359C21.2186 38.1346 21.2008 38.1391 20.6669 38.1391H20.1152L20.8538 36.6131C21.2587 35.7738 21.6057 35.087 21.6191 35.087C21.6324 35.087 21.5612 35.7275 21.4544 36.5098Z" fill="white"/>
<path d="M25.2109 33.8168C25.1931 33.8437 23.6003 38.956 23.3289 39.8537C23.3067 39.93 23.3912 39.9344 24.6637 39.9344H26.0207L26.1275 39.5843L26.2343 39.2387L25.4601 39.2253C25.0374 39.2208 24.6904 39.2028 24.6904 39.1939C24.6904 39.1849 25.0597 37.9775 25.5135 36.5188C25.9673 35.0601 26.3366 33.8527 26.3366 33.8258C26.3366 33.7764 25.2376 33.7674 25.2109 33.8168Z" fill="white"/>
<path d="M30.5848 33.8392C30.5715 33.8706 30.1532 35.2081 29.6594 36.8149C29.1655 38.4218 28.7384 39.7773 28.7206 39.8356L28.6895 39.9344L30.0509 39.9254L31.4168 39.9119L31.5236 39.5753C31.5814 39.3913 31.6304 39.2342 31.6304 39.2252C31.6304 39.2162 31.2789 39.2162 30.8473 39.2162C30.1266 39.2162 30.0687 39.2117 30.091 39.1354C30.1043 39.095 30.4736 37.8966 30.9185 36.4738C31.3634 35.051 31.7194 33.8616 31.7194 33.8347C31.7194 33.7584 30.6102 33.7673 30.5848 33.8392Z" fill="white"/>
<path d="M44.4037 34.0637C44.3548 34.2208 43.9632 35.4865 43.5272 36.8824C43.0912 38.2783 42.7086 39.535 42.6641 39.6786L42.584 39.939L43.1624 39.9255L43.7452 39.912L44.6306 37.0619C45.1156 35.4955 45.5427 34.1175 45.5783 33.9964L45.6406 33.7854H44.4971L44.4037 34.0637Z" fill="white"/>
<path d="M51.3448 34.0995C51.2915 34.27 51.2381 34.4406 51.2247 34.481C51.2025 34.5393 51.2781 34.5483 51.8031 34.5483C52.1368 34.5483 52.4082 34.5618 52.4082 34.5752C52.4082 34.5887 52.0478 35.7692 51.6073 37.192C51.1669 38.6148 50.7931 39.8132 50.7798 39.8536C50.7575 39.9299 50.802 39.9344 51.3315 39.9344H51.9054L52.6529 37.5196C53.0622 36.1955 53.4404 34.9837 53.4849 34.8311L53.5695 34.5528L54.179 34.5393L54.7885 34.5259L54.8864 34.2341C55.0555 33.7359 55.2424 33.7853 53.2135 33.7853H51.4383L51.3448 34.0995Z" fill="white"/>
<path d="M55.9942 34.4228C55.8874 34.7773 55.4825 36.0745 55.0999 37.3088C54.7173 38.5431 54.3791 39.6383 54.3435 39.746L54.2812 39.939L54.8641 39.9255L55.4425 39.912L56.3279 37.0619C56.8173 35.4955 57.2444 34.1175 57.28 33.9964L57.3423 33.7854H56.1931L55.9942 34.4228Z" fill="white"/>
<path d="M74.702 34.0861C74.6486 34.2567 74.2215 35.6391 73.7499 37.1607L72.8867 39.9345H74.0168L74.3683 38.7899L74.7198 37.6409L74.9423 37.6544L75.1603 37.6678L75.3071 38.7899C75.3827 39.4049 75.4495 39.9165 75.4539 39.921C75.4584 39.9569 76.6552 39.93 76.6552 39.8941C76.6552 39.8716 76.5573 39.3241 76.4372 38.6732C76.3171 38.0224 76.2192 37.4883 76.2236 37.4883C76.2281 37.4883 76.3527 37.43 76.4995 37.3537C77.0734 37.0664 77.5451 36.4066 77.7853 35.5628C77.9722 34.912 77.9277 34.517 77.6251 34.1983C77.3359 33.8976 76.762 33.7854 75.534 33.7854H74.791L74.702 34.0861ZM76.4906 34.5798C76.584 34.6202 76.6775 34.6876 76.6997 34.7325C76.7798 34.8806 76.7442 35.2172 76.6063 35.6571C76.2948 36.6355 76.0368 36.8958 75.2982 36.9587C75.0535 36.9766 74.9645 36.9722 74.9645 36.9318C74.9645 36.8914 75.6096 34.7684 75.6986 34.508C75.7311 34.4317 76.2383 34.4766 76.4919 34.5798H76.4906Z" fill="white"/>
<path d="M84.8204 33.804C84.767 33.9477 83.539 37.9378 83.4589 38.2161C83.3566 38.5976 83.3477 39.1183 83.4456 39.3517C83.6191 39.7781 83.975 39.9441 84.7003 39.9441C85.4922 39.9441 85.9461 39.7736 86.4088 39.3023C86.827 38.8759 86.9827 38.4944 87.7302 36.0841C88.0906 34.9127 88.402 33.9073 88.4198 33.8489L88.451 33.7502H87.3031L86.6001 36.0258C85.866 38.3912 85.7191 38.8041 85.5234 39.0106C85.4318 39.1017 85.3211 39.1709 85.1994 39.2128C85.0776 39.2548 84.9481 39.2685 84.8204 39.2529C84.5446 39.208 84.4645 39.0869 84.5001 38.7413C84.5134 38.5976 84.8382 37.4755 85.2386 36.1829C85.6346 34.9127 85.955 33.8489 85.955 33.813C85.955 33.7277 84.8515 33.7188 84.8204 33.804Z" fill="white"/>
<path d="M89.1678 36.7889C88.6473 38.463 88.2246 39.85 88.2246 39.8679C88.2246 39.8859 88.4782 39.8948 88.7897 39.8903L89.3592 39.8769L89.6261 39.0241C89.7729 38.5528 89.9064 38.1489 89.9153 38.1174C89.9242 38.086 90.12 38.0456 90.4181 38.0187C91.2456 37.9379 91.7439 37.7045 92.2334 37.1659C92.8385 36.5061 93.2656 35.1551 93.0698 34.5537C92.874 33.9522 92.2956 33.7502 90.8007 33.7502H90.1066L89.1678 36.7889ZM91.6816 34.5357C92.0198 34.6749 92.0376 34.989 91.7617 35.8598C91.5571 36.5061 91.3747 36.8562 91.1433 37.0537C90.9386 37.2287 90.5782 37.3544 90.3246 37.332L90.1511 37.3185L90.5871 35.9181C90.8274 35.1461 91.0321 34.4953 91.0454 34.4729C91.081 34.419 91.4903 34.4594 91.6816 34.5357V34.5357Z" fill="white"/>
</g>
<defs>
<clipPath id="clip0_1148_881">
<rect width="101" height="40" fill="white"/>
</clipPath>
</defs>
</svg>
