<?xml version="1.0" encoding="UTF-8"?>
<svg width="82px" height="82px" viewBox="0 0 82 82" version="1.1" xmlns="http://www.w3.org/2000/svg" xmlns:xlink="http://www.w3.org/1999/xlink">
    <title>Group 3 Copy</title>
    <defs>
        <polygon id="path-1" points="0 0 13.7243921 0 13.7243921 13.1600752 0 13.1600752"></polygon>
        <polygon id="path-3" points="0 0 13.7243921 0 13.7243921 13.1600752 0 13.1600752"></polygon>
        <polygon id="path-5" points="0 0 13.7243921 0 13.7243921 13.1600752 0 13.1600752"></polygon>
    </defs>
    <g id="New-Designs" stroke="none" stroke-width="1" fill="none" fill-rule="evenodd">
        <g id="Navigation-Full" transform="translate(-45.000000, -24.000000)">
            <g id="Group-26-Copy" transform="translate(45.878956, 24.000000)">
                <path d="M40.0702815,14.2994336 L40.2745591,14.2994336 L59.9873497,14.2994336 L67.8520382,0 L38.4360605,0 C25.158015,0.204277623 14.1270233,7.76254968 12.9013576,18.3849861 C12.0842471,25.3304253 15.7612443,32.0705655 21.9917118,36.666812 C21.6852954,35.3400288 21.4810178,33.9100855 21.4810178,32.5812595 C21.4810178,22.4705386 29.7542615,14.2994336 40.0702815,14.2994336" id="Fill-1" fill="#FFFFFF"></path>
                <path d="M40.1725224,50.7631937 L39.9682448,50.7631937 L20.2554542,50.7631937 L12.3907657,65.0626273 L41.8067434,65.0626273 C55.0847889,64.8583497 66.1157806,57.2990562 67.3414463,46.6776412 C68.1585568,39.7311806 64.4815596,32.9910404 58.2510921,28.3947939 C58.5575085,29.7215771 58.7617861,31.1525418 58.7617861,32.4803464 C58.7617861,42.5920887 50.3864036,50.7631937 40.1725224,50.7631937" id="Fill-3" fill="#FFFFFF"></path>
                <path d="M74.6443713,55.9209994 C72.2788365,55.9209994 70.3545413,57.8452946 70.3545413,60.2108295 C70.3545413,62.5763643 72.2788365,64.4996382 74.6443713,64.4996382 C77.0099062,64.4996382 78.9342014,62.5763643 78.9342014,60.2108295 C78.9342014,57.8452946 77.0099062,55.9209994 74.6443713,55.9209994 M74.6443713,65.0103322 C71.9969333,65.0103322 69.8438472,62.8572461 69.8438472,60.2108295 C69.8438472,57.5633915 71.9969333,55.4103053 74.6443713,55.4103053 C77.290788,55.4103053 79.4448955,57.5633915 79.4448955,60.2108295 C79.4448955,62.8572461 77.290788,65.0103322 74.6443713,65.0103322" id="Fill-5" fill="#FFFFFF"></path>
                <path d="M74.0693298,59.7980865 L74.3430618,59.7980865 C74.5606175,59.7980865 74.8568201,59.775616 75.0600763,59.5713384 C75.1458729,59.4865631 75.2551614,59.3221197 75.2551614,59.0647298 C75.2551614,58.7675059 75.1142099,58.6122549 75.0130925,58.533608 C74.8180073,58.3855068 74.5064839,58.3701859 74.3491902,58.3701859 L74.0693298,58.3701859 L74.0693298,59.7980865 Z M74.693398,57.433573 C75.3573002,57.433573 75.7709624,57.6521501 76.0201811,57.886048 C76.2397796,58.0964539 76.4736775,58.4713034 76.4736775,59.049409 C76.4736775,59.3772746 76.4032017,59.7827657 76.0681864,60.1116527 C75.8874007,60.2832459 75.6300109,60.4384969 75.3419794,60.5089726 L76.9424946,62.6395883 L75.4747599,62.6395883 L74.0693298,60.5865981 L74.0693298,62.6395883 L72.867156,62.6395883 L72.867156,57.433573 L74.693398,57.433573 Z" id="Fill-7" fill="#FFFFFF"></path>
                <path d="M1.56170243,77.0299254 C2.88031449,77.9716453 3.65146252,78.2913397 4.63097372,78.2913397 C5.17639497,78.2913397 5.59107855,78.0278216 5.59107855,77.7071057 C5.59107855,77.5947531 5.51549583,77.462994 5.38373676,77.3690263 C5.25197769,77.2740372 5.00786593,77.1800695 4.78111777,77.1238931 L4.32966422,77.0105191 L3.8588043,76.9175727 L3.40735076,76.8031773 C2.71076406,76.6540546 1.86301192,76.1259969 1.41155838,75.6173457 C0.978489815,75.0719244 0.733356667,74.299755 0.733356667,73.4152329 C0.733356667,70.7228538 2.93649083,68.8394141 6.06091708,68.8394141 C7.62466229,68.8394141 8.60417349,69.16013 10.2414586,70.1958175 L8.81049389,73.2834738 C7.98214813,72.5858657 7.28556143,72.3039626 6.47662205,72.3039626 C5.8362117,72.3039626 5.38373676,72.6052721 5.38373676,73.0015707 C5.38373676,73.2834738 5.74224399,73.4724306 6.77691015,73.7165424 C8.05670946,74.0362369 8.32124898,74.1118196 8.65932845,74.299755 C9.75221373,74.8645826 10.3354263,75.9380615 10.3354263,77.3496199 C10.3354263,80.1359667 8.2078749,81.981615 4.98845956,81.981615 C3.33176804,81.981615 2.16432142,81.6425142 0,80.5700566 L1.56170243,77.0299254 Z" id="Fill-9" fill="#FFFFFF"></path>
                <g id="Group-13" transform="translate(11.324845, 68.839925)">
                    <mask id="mask-2" fill="white">
                        <use xlink:href="#path-1"></use>
                    </mask>
                    <g id="Clip-12"></g>
                    <path d="M4.76273279,6.55220477 C4.76273279,7.92699317 5.64725489,8.92386797 6.87087786,8.92386797 C8.07611584,8.92386797 8.96063794,7.94537816 8.96063794,6.58999613 C8.96063794,5.2346141 8.07611584,4.23569652 6.87087786,4.23569652 C5.64725489,4.23569652 4.76273279,5.2346141 4.76273279,6.55220477 M13.7243921,6.53279839 C13.7243921,10.5427681 10.9758367,13.1605859 6.77793154,13.1605859 C4.70655644,13.1605859 2.73017043,12.3322401 1.50654747,10.9574517 C0.527036268,9.82779645 0,8.32124898 0,6.6094025 C0,4.72596281 0.640410349,3.03147993 1.75065923,1.93859464 C2.97428219,0.71599307 4.87610687,0 6.87087786,0 C10.9380453,0 13.7243921,2.6556091 13.7243921,6.53279839" id="Fill-11" fill="#FFFFFF" mask="url(#mask-2)"></path>
                </g>
                <polygon id="Fill-14" fill="#FFFFFF" points="26.5478178 69.1411322 31.293187 69.1411322 34.8690668 75.4298188 34.8690668 69.1411322 39.4070942 69.1411322 39.4070942 81.6990991 34.793484 81.6990991 31.0664388 75.1101243 31.0664388 81.6990991 26.5478178 81.6990991"></polygon>
                <g id="Group-18" transform="translate(40.886268, 68.839925)">
                    <mask id="mask-4" fill="white">
                        <use xlink:href="#path-3"></use>
                    </mask>
                    <g id="Clip-17"></g>
                    <path d="M4.76273279,6.55220477 C4.76273279,7.92699317 5.64725489,8.92386797 6.87087786,8.92386797 C8.07611584,8.92386797 8.96063794,7.94537816 8.96063794,6.58999613 C8.96063794,5.2346141 8.07611584,4.23569652 6.87087786,4.23569652 C5.64725489,4.23569652 4.76273279,5.2346141 4.76273279,6.55220477 M13.7243921,6.53279839 C13.7243921,10.5427681 10.9758367,13.1605859 6.77793154,13.1605859 C4.70655644,13.1605859 2.73017043,12.3322401 1.50654747,10.9574517 C0.527036268,9.82779645 0,8.32124898 0,6.6094025 C0,4.72596281 0.640410349,3.03147993 1.75065923,1.93859464 C2.97428219,0.71599307 4.87508548,0 6.87087786,0 C10.9380453,0 13.7243921,2.6556091 13.7243921,6.53279839" id="Fill-16" fill="#FFFFFF" mask="url(#mask-4)"></path>
                </g>
                <path d="M65.230952,81.3410004 C63.5548541,81.887443 63.122807,81.9814107 62.067713,81.9814107 C60.2230861,81.9814107 58.7165386,81.3981981 57.5113007,80.2123665 C56.2315014,78.9499308 55.6299038,77.4444047 55.6299038,75.4669973 C55.6299038,71.6827544 58.3978655,68.8402312 62.0871194,68.8402312 C62.8592888,68.8402312 63.4619078,68.9352203 64.2892322,69.1793321 L65.230952,69.4806416 L65.230952,74.187198 C64.1952645,73.2648846 63.5926455,72.9635751 62.7275298,72.9635751 C61.3343564,72.9635751 60.2608775,74.0176476 60.2608775,75.392436 C60.2608775,76.8039944 61.2771586,77.8018906 62.7081234,77.8018906 C63.6120519,77.8018906 64.1390881,77.5751424 65.230952,76.7284117 L65.230952,81.3410004 Z" id="Fill-19" fill="#FFFFFF"></path>
                <g id="Group-23" transform="translate(66.517697, 68.839925)">
                    <mask id="mask-6" fill="white">
                        <use xlink:href="#path-5"></use>
                    </mask>
                    <g id="Clip-22"></g>
                    <path d="M4.76273279,6.55220477 C4.76273279,7.92699317 5.64725489,8.92386797 6.87087786,8.92386797 C8.07611584,8.92386797 8.96063794,7.94537816 8.96063794,6.58999613 C8.96063794,5.2346141 8.07611584,4.23569652 6.87087786,4.23569652 C5.64725489,4.23569652 4.76273279,5.2346141 4.76273279,6.55220477 M13.7243921,6.53279839 C13.7243921,10.5427681 10.9758367,13.1605859 6.77793154,13.1605859 C4.70655644,13.1605859 2.73017043,12.3322401 1.50654747,10.9574517 C0.527036268,9.82779645 0,8.32124898 0,6.6094025 C0,4.72596281 0.640410349,3.03147993 1.75065923,1.93859464 C2.97428219,0.71599307 4.87610687,0 6.87087786,0 C10.9380453,0 13.7243921,2.6556091 13.7243921,6.53279839" id="Fill-21" fill="#FFFFFF" mask="url(#mask-6)"></path>
                </g>
                <path d="M53.7557587,32.6833983 C53.7557587,40.2416704 47.6284514,46.3689777 40.0701793,46.3689777 C32.5119073,46.3689777 26.3846,40.2416704 26.3846,32.6833983 C26.3846,25.1251263 32.5119073,18.997819 40.0701793,18.997819 C47.6284514,18.997819 53.7557587,25.1251263 53.7557587,32.6833983" id="Fill-24" fill="#FFFFFF"></path>
            </g>
        </g>
    </g>
</svg>