<svg xmlns="http://www.w3.org/2000/svg" viewBox="0 0 496.79 121.1"><defs><style>.cls-1{fill:#fff;}</style></defs><g id="Layer_2" data-name="Layer 2"><g id="Layer_1-2" data-name="Layer 1"><path class="cls-1" d="M159.33,59.52a38.21,38.21,0,0,0-1-6.71,17.61,17.61,0,0,0-2.62-6.51c-2.57-3.81-7.52-6.09-13.24-6.09a17.33,17.33,0,0,0-15.69,9.38l-.32-8.31-6.58,1.34v52h7V66.64c0-6.24,1.45-11.09,4.44-14.82s6.32-5.56,10.17-5.57c6.41-.42,8.84,4.76,9.57,7A16.84,16.84,0,0,1,152.12,58a33.37,33.37,0,0,1,.4,4.86c.1,1.2.1,3,.1,5.14V94.58h7V66.51Z"/><path class="cls-1" d="M204.18,71.27c0,5.64-1.36,10-4.15,13.5s-5.74,5.1-9.41,5.19c-3.44,0-5.18-.76-7.43-3.22-2.28-2.78-3.44-9-3.44-18.49v-27l-7.11,1.44V69.19c0,19.11,5,26.9,17.17,26.9,6.6,0,11.53-3,14.7-8.82l.29,7.31h6.5V41.37l-7.12,1.44Z"/><path class="cls-1" d="M244.47,88.89A10.46,10.46,0,0,1,239.61,90c-4.91-.27-7.29-4.19-7.29-12V47.57h13l1-5.85h-14V28.44l-7.12,1.43V41.72h-6.37l-1.21,5.85h7.58V78.35c0,6.59,1.36,11.31,4,14a12.78,12.78,0,0,0,9.26,3.73l.82,0a23.33,23.33,0,0,0,6.93-1.47l.66-.24-1.63-5.85Z"/><path class="cls-1" d="M278.81,40.52a14.32,14.32,0,0,0-3.69-.4c-6.57,0-12.27,4.13-15.74,11.21,0-.76-.05-1.57-.08-2.39-.07-2.42-.15-4.91-.15-6.65v-.91l-6.52,1.23v52h7V68.81A28.31,28.31,0,0,1,264,53.53c2.76-4.58,6.08-6.8,10.16-6.8a11.56,11.56,0,0,1,2.72.44l.7.18,2-6.63Z"/><path class="cls-1" d="M317.92,56.67c-.85-10.36-7.94-16.55-19-16.55-7.26,0-13.18,1.77-17.59,5.26l-.52.4,3.06,5.27.68-.51a22.12,22.12,0,0,1,13.66-4.38c7.12,0,11.81,4.05,12.57,10.85a60.59,60.59,0,0,1,.39,6.33H296.14c-6.09,0-10.72,1.6-13.75,4.75a15.49,15.49,0,0,0-4.62,11.29c0,10.1,7,16.62,17.87,16.62a18.31,18.31,0,0,0,16-8.93l.31,7.51h6.49V71.45C318.43,66,318.26,61,317.92,56.67ZM296.44,89.86c-7.52,0-11.46-5.41-11.46-10.76,0-6.15,4.25-9.82,11.36-9.82h15v5.07a16.81,16.81,0,0,1-4.61,11A13.54,13.54,0,0,1,296.44,89.86Z"/><path class="cls-1" d="M341.6,29.94V49.56A16.72,16.72,0,0,1,356,40.5c10.31,0,16.42,6.51,18.12,17a62,62,0,0,1,.8,9.81,56.18,56.18,0,0,1-1.1,11c-2.5,11.42-10.12,16.89-19.73,16.89-5.51,0-11.11-2.93-13.61-7.55L336,93.92h-5.81V31.83Zm20.82,46.61a49.65,49.65,0,0,0,.1-17.27c-1.1-6.14-4.6-9.72-9.91-9.72-5.61,0-10.41,5.28-10.91,13.59-.1,2.26-.21,4-.21,5.1,0,1.41.11,3.4.21,6,.7,9.34,5.5,12.46,10.71,12.46S361.12,83.35,362.42,76.55Z"/><path class="cls-1" d="M425.9,67a64.94,64.94,0,0,1-.9,10.67,20.76,20.76,0,0,1-7.21,12.83,21.8,21.8,0,0,1-14.51,4.91c-11.63,0-19.43-6.42-21.44-16.52a59,59,0,0,1-1.1-11,64.26,64.26,0,0,1,.8-9.53,19.94,19.94,0,0,1,7.21-12.75,22.07,22.07,0,0,1,14.53-5.09c11.7,0,20.32,6.89,21.92,17.74A49,49,0,0,1,425.9,67ZM403.17,49.09c-6.51.09-10,5.09-10.52,11.89-.19,4.34-.29,6.61-.29,6.89a46.16,46.16,0,0,0,.7,8.4c1.2,7,4.7,10.48,10.61,10.48s9.31-3.59,10.22-10.86c.2-2.17.3-4.53.3-7.17a66.16,66.16,0,0,0-.41-8.59C413.09,53.43,409.18,49.09,403.17,49.09Z"/><path class="cls-1" d="M434,31.83l11.41-1.89V93.82H434Z"/><path class="cls-1" d="M457.64,31,469,29.08V42.2h13.62l-1.2,8.3H469V76.27c0,6.89,2.4,10.38,7.31,10.66a10.36,10.36,0,0,0,4.81-1l1.8,8a27,27,0,0,1-7.81,1.41c-8.41.19-17.53-2.92-17.53-18V50.5h-7.2l1.39-8.3h5.92Z"/><path class="cls-1" d="M491.22,38.16a5.58,5.58,0,1,1,5.57-5.58A5.58,5.58,0,0,1,491.22,38.16Zm0-10.26a4.69,4.69,0,1,0,4.69,4.68A4.69,4.69,0,0,0,491.22,27.9Z"/><path class="cls-1" d="M489,29.76h2.52a2.79,2.79,0,0,1,1,.15,1.85,1.85,0,0,1,.68.41,1.73,1.73,0,0,1,.35.54,1.87,1.87,0,0,1,.12.68v0a1.72,1.72,0,0,1-.1.62,1.74,1.74,0,0,1-.28.5,1.82,1.82,0,0,1-.42.36,2.06,2.06,0,0,1-.55.23l1.53,2.14h-1.17l-1.39-2H490v2h-1Zm2.45,2.8a1.33,1.33,0,0,0,.85-.26.84.84,0,0,0,.31-.69v0a.83.83,0,0,0-.31-.7,1.35,1.35,0,0,0-.86-.24H490v1.91Z"/><path class="cls-1" d="M13.14,79.35C16,82.93,24.62,90.67,27.62,93.29c1.9,1.65,11.08,8.37,12.91,9.08L23.87,33l28,25L43.75,0l0,.08h0C38.32,2.69,24.52,10.59,19,15.57a61.11,61.11,0,0,0-5.89,5.8C-4.88,42.48-3.85,58.09,13.14,79.35Z"/><path class="cls-1" d="M78.54,39.18a79.2,79.2,0,0,0-9-9.15c-1.89-1.65-10-8.06-11.89-9.35L66.3,82,41.83,60.39c2.74,10.87,11.81,49.77,14.59,60.71,5.62-1.26,11.57-5.44,16-9A53.73,53.73,0,0,0,83.74,99.43a50.11,50.11,0,0,0,8-30.07C91,58.12,85.72,47.8,78.54,39.18Z"/></g></g></svg>